Coordinates
version=1
nRows=15
nColumns=34
inDegrees=yes

Units are S.I. units (second, meters, Newtons, ...)
If the header above contains a line with 'inDegrees', this indicates whether rotational values are in degrees (yes) or radians (no).

endheader
time	pelvis_tilt	pelvis_list	pelvis_rotation	pelvis_tx	pelvis_ty	pelvis_tz	hip_flexion_r	hip_adduction_r	hip_rotation_r	knee_angle_r	ankle_angle_r	subtalar_angle_r	mtp_angle_r	hip_flexion_l	hip_adduction_l	hip_rotation_l	knee_angle_l	ankle_angle_l	subtalar_angle_l	mtp_angle_l	lumbar_extension	lumbar_bending	lumbar_rotation	arm_flex_r	arm_add_r	arm_rot_r	elbow_flex_r	pro_sup_r	arm_flex_l	arm_add_l	arm_rot_l	elbow_flex_l	pro_sup_l
      8.13333330	     -7.29136277	     -2.30032789	      3.89031475	     -0.62017891	      0.81404875	     -0.17660630	     42.34975570	     -7.96279236	    -12.32638800	     66.94502018	     31.46596772	     -7.84200247	      0.00000000	     47.80864447	    -11.81672534	     -9.62988530	     69.24709734	     20.65214127	     -2.33241543	      0.00000000	    -37.68070964	      4.51525894	     -2.78883417	     19.47762874	    -10.33144457	     -2.22645251	     26.82772619	     98.62941995	     12.08076433	    -14.29297564	     -1.51255052	     37.02589004	    101.21837269
      8.15000000	     -7.63352813	     -2.48014456	      4.50067907	     -0.61737685	      0.82470075	     -0.17739762	     41.24158136	     -7.80320509	    -13.16193180	     64.27019179	     29.88835819	     -8.59878079	      0.00000000	     46.99696923	    -11.09362926	     -9.04847370	     66.79251711	     19.43307055	     -2.70771203	      0.00000000	    -36.11054085	      4.78607864	     -3.04924367	     18.71971199	    -10.25426574	     -1.71323942	     26.03777939	     98.70326208	     11.85813545	    -14.23936273	     -1.16113004	     36.95823256	    101.21651827
      8.16666670	     -7.90491668	     -2.61523495	      5.13535729	     -0.61798620	      0.82996785	     -0.17777562	     40.42405919	     -7.86084212	    -14.02268570	     62.28031654	     28.57598044	     -8.74659375	      0.00000000	     46.40735590	    -10.51008694	     -8.62963377	     64.64957494	     18.65392274	     -2.51962659	      0.00000000	    -34.18581253	      4.91490519	     -3.58916568	     17.75786639	    -10.21334084	     -1.51455156	     25.95926805	     98.71921691	     11.49671775	    -14.21405934	     -0.98956547	     37.00862778	    101.22026626
      8.18333330	     -8.43717982	     -2.49779783	      4.83589600	     -0.61506811	      0.84096552	     -0.17770604	     39.92274480	     -7.58131225	    -13.98185564	     59.44713984	     26.31565623	     -9.48920789	      0.00000000	     45.14527734	     -9.95790315	     -8.79778581	     61.35427747	     17.47159468	     -2.95992565	      0.00000000	    -32.12209076	      4.67074684	     -4.04534963	     16.82285906	     -9.89589347	     -1.12590627	     25.75053407	     98.75799437	     10.60846229	    -14.23807631	     -0.82271200	     36.96058038	    101.19405702
      8.20000000	     -8.54591072	     -2.56987734	      5.32231652	     -0.61555073	      0.85732239	     -0.17793706	     37.87433918	     -7.13954602	    -14.38371613	     55.80675189	     24.82844194	     -9.32191309	      0.00000000	     43.31272278	     -9.35601819	     -8.72602361	     57.46266712	     16.33738790	     -2.99638391	      0.00000000	    -30.49852649	      4.77290483	     -4.43572873	     15.78536137	     -9.70487329	     -0.92705363	     25.45410345	     98.77518158	      9.68612859	    -14.06851478	     -0.74880960	     36.85035856	    101.15527170
      8.21666670	     -8.32539437	     -2.36530560	      5.67268761	     -0.61332900	      0.86810786	     -0.17842865	     35.99245404	     -7.06139475	    -14.80815387	     52.58426484	     22.73109159	     -9.75712516	      0.00000000	     40.80091151	     -8.63429385	     -8.99564608	     53.39421209	     15.29878216	     -2.63454535	      0.00000000	    -29.19500434	      4.57936341	     -5.03166829	     14.95805717	     -9.42072456	     -0.68996293	     25.07372107	     98.78467088	      9.02798667	    -14.02478062	     -0.60913131	     37.09646369	    101.13967080
      8.23333330	     -8.12676763	     -2.43459176	      5.73343994	     -0.61362313	      0.87920004	     -0.17863373	     33.73767938	     -6.39431710	    -15.20062500	     48.46038208	     20.73369596	     -9.77669009	      0.00000000	     38.53833098	     -8.26810243	     -9.09491519	     49.46834759	     13.82402438	     -2.47349818	      0.00000000	    -28.00619811	      4.53372616	     -5.47485261	     14.51792190	     -9.17384113	     -0.39798086	     24.67897618	     98.79735341	      8.60236665	    -14.03390968	     -0.32475906	     37.19493934	    101.16613210
      8.25000000	     -8.55417728	     -2.24181859	      5.25696128	     -0.61131847	      0.88026054	     -0.17819519	     32.20836891	     -5.89509738	    -15.19820769	     44.42372982	     18.53542108	    -10.30237496	      0.00000000	     36.68565307	     -7.86569090	     -9.91258078	     45.35728052	     12.75930737	     -2.36317260	      0.00000000	    -26.25655984	      4.05013773	     -5.63735497	     13.66498036	     -9.04686565	     -0.22377865	     24.58558529	     98.76992759	      7.69016229	    -13.93700507	     -0.22439373	     37.48391208	    101.16000340
      8.26666670	     -9.19121112	     -2.43705329	      5.38946371	     -0.61139928	      0.89631965	     -0.17886874	     30.65048299	     -5.15108569	    -15.59139778	     39.82117843	     16.08916326	    -10.84958719	      0.00000000	     35.42252760	     -7.45737374	    -10.00165518	     41.33210716	     11.81472546	     -2.12976023	      0.00000000	    -24.53238882	      4.20971373	     -6.04286618	     12.74001390	     -8.96392202	     -0.22861100	     25.00683236	     98.69192060	      6.77368725	    -14.00310538	     -0.00699480	     38.01605084	    101.18965382
      8.28333330	     -9.71502540	     -2.52637271	      5.76640031	     -0.60827124	      0.90185507	     -0.17895996	     28.56062636	     -4.42164565	    -15.66195024	     34.78921186	     14.31420953	    -10.94757513	      0.00000000	     33.98069253	     -6.94215415	    -10.10264818	     37.29885381	     10.95760851	     -1.24838212	      0.00000000	    -22.65201316	      4.26277106	     -6.65246805	     11.74785984	     -8.81622337	     -0.34736015	     25.26779593	     98.60582914	      5.86337491	    -14.00100286	      0.12833361	     38.28436451	    101.22101916
      8.30000000	     -9.85706540	     -2.76232294	      5.84386449	     -0.58692231	      0.91159505	     -0.17332017	     25.27802109	     -3.09459824	    -15.45189604	     28.82851228	     11.60721517	    -11.64759053	      0.00000000	     31.47166330	     -6.99387408	    -10.14464056	     33.05535398	     11.27877560	      1.59819385	      0.00000000	    -20.73395352	      4.35638094	     -7.25430050	     10.62909713	     -8.55050888	     -0.49221936	     25.12842199	     98.51300722	      4.91942902	    -13.99135279	      0.31076136	     38.32790311	    101.27290475
      8.31666670	    -10.22923708	     -2.95058839	      5.76988582	     -0.58723268	      0.91667777	     -0.18406825	     22.56037694	     -2.09623027	    -15.01616846	     22.96878961	      9.09466901	    -12.57291813	      0.00000000	     29.67065472	     -6.59009497	     -9.56357272	     29.86904231	     10.74319098	      2.17667512	      0.00000000	    -18.86970323	      4.52830671	     -7.31476066	      9.36011431	     -8.74510893	     -0.65024366	     25.24063962	     98.37882691	      3.52222225	    -13.68519179	      0.41247422	     39.23362234	    101.32531264
      8.33333330	    -10.60585459	     -2.52182042	      5.66688829	     -0.58753831	      0.91828351	     -0.18363184	     20.58491604	     -1.85470801	    -14.08491917	     18.14369900	      7.20914623	    -12.94527625	      0.00000000	     27.26007417	     -5.57082093	    -10.16161569	     25.11900513	      9.45333240	      2.33022327	      0.00000000	    -17.11673155	      3.79448554	     -7.36477372	      8.36584515	     -8.73458911	     -0.68714224	     25.89191806	     98.26042866	      2.17514196	    -13.57472900	      0.46707932	     39.99835968	    101.41429818
      8.35000000	    -11.13046207	     -2.14895806	      5.96211197	     -0.58498895	      0.92415029	     -0.18361708	     18.56776455	     -1.59809166	    -13.31033622	     12.60079243	      5.37776587	    -12.79642317	      0.00000000	     24.70721945	     -4.34227234	    -10.41558906	     19.88479619	      8.67736534	      3.41161700	      0.00000000	    -14.98602846	      3.17470498	     -7.59350375	      7.20147429	     -8.70168283	     -0.81121881	     26.43425662	     98.12660514	      0.87576451	    -13.45794177	      0.59718029	     40.50922178	    101.53952764
      8.36666670	    -11.48067356	     -1.86035841	      5.91316124	     -0.58523064	      0.92962107	     -0.18366149	     17.09956971	     -1.34821367	    -12.24952089	      8.45555256	      3.97237760	    -12.81595679	      0.00000000	     22.57349650	     -3.24365767	     -9.95805267	     15.22887866	      7.75833031	      3.37842642	      0.00000000	    -13.48141429	      2.69474276	     -7.67697903	      6.21320738	     -8.62046654	     -0.85064550	     26.63484777	     98.01446264	     -0.35960137	    -13.41195686	      0.66948622	     41.32053850	    101.68053361
